# xmcd
#
# Track frame offsets: 
#        150
#        9935
#        19916
#        31045
#        43132
#        54998
#        64142
#        75343
#        85757
#        96215
#        106319
#        114248
#        123579
#        134044
#        142935
#        153139
#        165119
#        174839
#        187054
#        196132
#
# Disc length: 2763 seconds
#
# Revision: 0
# Processed by: cddbd v1.5.2PL0 Copyright (c) Steve Scherf et al.
# Submitted via: ExactAudioCopyFreeDBPlugin 1.0
#
DISCID=ee0ac914
DTITLE=Wanda Jackson - Wanda Jackson - The Essential Recordings
DYEAR=2016
DGENRE=Rockabilly
TTITLE0=Let's have a party
TTITLE1=Mean mean man
TTITLE2=I gotta known
TTITLE3=Hot dog! That made him mad
TTITLE4=Silver threads and golden needles
TTITLE5=Baby loves him
TTITLE6=Let me explain
TTITLE7=Cool love
TTITLE8=Did you miss me?
TTITLE9=Honey bop
TTITLE10=Rock your baby
TTITLE11=I wanna waltz
TTITLE12=Making believe
TTITLE13=Long tall Sally
TTITLE14=Money honey
TTITLE15=Happy, happy birthday, baby
TTITLE16=Savin' my love
TTITLE17=You've turned to a stranger
TTITLE18=You're the one for me
TTITLE19=Riot in cell block no. 9
EXTD=
EXTT0=
EXTT1=
EXTT2=
EXTT3=
EXTT4=
EXTT5=
EXTT6=
EXTT7=
EXTT8=
EXTT9=
EXTT10=
EXTT11=
EXTT12=
EXTT13=
EXTT14=
EXTT15=
EXTT16=
EXTT17=
EXTT18=
EXTT19=
PLAYORDER=
